<?xml version="1.0" encoding="UTF-8"?>
<svg width="16px" height="16px" viewBox="0 0 16 16" version="1.1" xmlns="http://www.w3.org/2000/svg" xmlns:xlink="http://www.w3.org/1999/xlink">
    <!-- Generator: sketchtool 51.3 (57544) - http://www.bohemiancoding.com/sketch -->
    <title>763796E0-71CD-4825-A43E-F11BA2556C3A</title>
    <desc>Created with sketchtool.</desc>
    <defs></defs>
    <g id="Page-1" stroke="none" stroke-width="1" fill="none" fill-rule="evenodd">
        <g id="Style-Guide-Line" transform="translate(-368.000000, -793.000000)" fill="#0F62AC">
            <g id="Group-11" transform="translate(80.000000, 793.000000)">
                <g id="icon/image/2" transform="translate(288.000000, 0.000000)">
                    <g id="bxs-image">
                        <path d="M14.4,0 L1.6,0 C0.7176,0 0,0.892515 0,1.99 L0,13.93 C0,15.027485 0.7176,15.92 1.6,15.92 L14.4,15.92 C15.2824,15.92 16,15.027485 16,13.93 L16,1.99 C16,0.892515 15.2824,0 14.4,0 Z M3.82605562,4.72171549 C4.47823395,4.72171549 5.00692894,5.22874974 5.00692894,5.85420817 C5.00692894,6.4796666 4.47823395,6.98670085 3.82605562,6.98670085 C3.17387729,6.98670085 2.64518229,6.4796666 2.64518229,5.85420817 C2.64518229,5.22874974 3.17387729,4.72171549 3.82605562,4.72171549 Z M8.15592448,12.2716667 L2.64518229,12.2716667 L5.79417783,8.49669108 L6.97505115,10.0066813 L9.33679781,6.98670085 L13.6666667,12.2716667 L8.15592448,12.2716667 Z" id="Shape" fill-rule="nonzero"></path>
                    </g>
                </g>
            </g>
        </g>
    </g>
</svg>