<?xml version="1.0" encoding="UTF-8"?>
<svg width="24px" height="24px" viewBox="0 0 24 24" version="1.1" xmlns="http://www.w3.org/2000/svg" xmlns:xlink="http://www.w3.org/1999/xlink">
    <!-- Generator: sketchtool 51.3 (57544) - http://www.bohemiancoding.com/sketch -->
    <title>187BA9F7-E9BE-42F4-A7C5-966038EB42C9</title>
    <desc>Created with sketchtool.</desc>
    <defs></defs>
    <g id="Page-1" stroke="none" stroke-width="1" fill="none" fill-rule="evenodd">
        <g id="Tour/Tour-details/info" transform="translate(-167.000000, -412.000000)" fill="#0F62AC">
            <g id="IMG" transform="translate(147.000000, 263.000000)">
                <g id="Group-13">
                    <g id="Group-12" transform="translate(0.000000, 138.000000)">
                        <g id="Group-10" transform="translate(20.000000, 11.000000)">
                            <g id="Group-11">
                                <g id="icon/food/1">
                                    <g id="food">
                                        <path d="M11.9905141,0.0917461788 C5.41910144,0.0917461788 0.0927095878,5.41813803 0.0927095878,11.9896248 C0.0927095878,16.7244836 2.86569708,20.800667 6.86955072,22.7156276 L7.24194535,15.5198518 C7.24194535,15.5198518 6.5414729,15.2899676 6.38814266,15.2151181 C4.90241779,14.560667 3.82310329,12.6337008 3.82310329,10.1327652 C3.82310329,7.40372395 5.93956461,5.05308013 7.98577119,5.03366373 L7.99347846,5.03366373 C10.0401297,5.05300602 12.1566651,7.40364984 12.1566651,10.1327652 C12.1566651,12.6337008 11.0760167,14.5598518 9.59333025,15.2151181 C9.58169523,15.2202316 8.73270959,15.5285225 8.73270959,15.5285225 L9.14860584,23.5293377 C10.0612506,23.7539602 11.0101343,23.885799 11.9921445,23.885799 C13.3164613,23.885799 14.5847522,23.6602131 15.7747105,23.26151 L16.1432515,16.1312459 C15.1720611,15.9176656 14.3436776,15.2993793 13.8244743,14.5236869 C13.1812876,13.5602038 14.3195924,5.03284854 14.3195924,5.03284854 L15.0600834,5.03284854 L15.0600834,13.0349236 L15.7954609,13.0349236 L15.7954609,5.03373784 L16.599685,5.03373784 L16.599685,13.0367022 L17.3315794,13.0367022 L17.3315794,5.03373784 L18.1659657,5.03373784 L18.1659657,13.0367022 L18.9003798,13.0367022 L18.9003798,5.03373784 L19.4686429,5.03373784 C19.4686429,5.03373784 20.6069477,13.5610931 19.9629458,14.5245762 C19.448856,15.2926355 18.6282538,15.9091431 17.6691431,16.127837 C17.65195,16.1339138 17.6363872,16.1398425 17.6363872,16.1398425 L17.9566836,22.2731264 C21.5007689,20.212617 23.8892821,16.3844743 23.8892821,11.9896989 C23.8875035,5.41821214 18.5611116,0.0917461788 11.9905141,0.0917461788 Z" id="Shape" fill-rule="nonzero"></path>
                                        <path d="M5.56457619,8.92301992 C5.60718851,8.74953219 5.66447429,8.58464104 5.66706809,8.5816767 C5.68559518,8.51668365 5.65113478,8.45035665 5.5805095,8.40818898 C5.5133673,8.37202409 5.43155164,8.39055118 5.39368226,8.44865215 C5.39368226,8.44865215 5.31231126,8.57826772 5.19433071,8.76983789 C5.09836035,8.93472904 4.95629458,9.19818434 4.85936082,9.52626216 C4.77539602,9.81380269 4.67512737,10.1961278 4.62992126,10.6240296 C4.6114174,10.8355905 4.60579949,11.0480811 4.61309866,11.2603242 C4.62992126,11.4983604 4.66601204,11.7020102 4.73493284,11.9349328 C4.96867068,12.5992404 5.14867994,13.2425012 5.79831403,13.8770171 C6.00366836,14.0880037 6.21465493,14.231774 6.36702177,14.3376748 L6.42082446,14.3755442 C6.45358036,14.3971098 6.48500232,14.4169708 6.51597962,14.4350533 C6.64389069,14.5021955 6.72948587,14.5262807 6.74504863,14.5296897 C6.80870774,14.5468828 6.87421955,14.5159055 6.90126911,14.464252 C6.92668828,14.4100046 6.90816119,14.3419731 6.8552478,14.2989903 C6.8552478,14.2989903 6.78113942,14.2344419 6.68605836,14.1138675 C6.62106531,14.0406484 6.55044002,13.9347476 6.46825382,13.8151366 C6.41015285,13.7307272 6.3416767,13.6351274 6.27794349,13.5421214 C5.96150069,13.0590829 5.77904585,12.3849189 5.52670681,11.6943029 C5.47720241,11.5444558 5.43673923,11.3502918 5.42162112,11.1854006 C5.4022396,11.0047992 5.39234489,10.8233055 5.39197777,10.6416674 C5.38464104,10.2464474 5.40227883,9.90717925 5.43673923,9.63208893 C5.47631311,9.32172302 5.50729041,9.08880037 5.56457619,8.92301992 Z" id="Shape" fill-rule="nonzero"></path>
                                    </g>
                                </g>
                            </g>
                        </g>
                    </g>
                </g>
            </g>
        </g>
    </g>
</svg>