<?xml version="1.0" encoding="UTF-8"?>
<svg width="16px" height="16px" viewBox="0 0 16 16" version="1.1" xmlns="http://www.w3.org/2000/svg" xmlns:xlink="http://www.w3.org/1999/xlink">
    <!-- Generator: sketchtool 51.3 (57544) - http://www.bohemiancoding.com/sketch -->
    <title>A7C62A0E-9ECC-4390-88F2-DC3A096F442A</title>
    <desc>Created with sketchtool.</desc>
    <defs></defs>
    <g id="Page-1" stroke="none" stroke-width="1" fill="none" fill-rule="evenodd">
        <g id="Style-Guide-Line" transform="translate(-240.000000, -889.000000)" fill="#FFFFFF">
            <g id="Group-11" transform="translate(80.000000, 793.000000)">
                <g id="icon/food/2" transform="translate(160.000000, 96.000000)">
                    <g id="food">
                        <path d="M7.99367608,0.0611641192 C3.61273429,0.0611641192 0.0618063918,3.61209202 0.0618063918,7.99308322 C0.0618063918,11.1496557 1.91046472,13.8671113 4.57970048,15.1437517 L4.82796356,10.3465679 C4.82796356,10.3465679 4.36098194,10.1933117 4.25876177,10.1434121 C3.26827852,9.70711132 2.54873553,8.42246719 2.54873553,6.75517678 C2.54873553,4.93581596 3.95970974,3.36872009 5.32384746,3.35577582 L5.32898564,3.35577582 C6.69341979,3.36867068 8.10444342,4.93576656 8.10444342,6.75517678 C8.10444342,8.42246719 7.38401112,9.70656786 6.3955535,10.1434121 C6.38779682,10.1468211 5.82180639,10.3523483 5.82180639,10.3523483 L6.09907056,15.6862251 C6.70750039,15.8359734 7.34008955,15.923866 7.99476301,15.923866 C8.87764088,15.923866 9.72316813,15.7734754 10.5164737,15.5076733 L10.7621677,10.754164 C10.1147074,10.6117771 9.56245175,10.1995862 9.2163162,9.68245793 C8.78752509,9.04013587 9.54639494,3.35523236 9.54639494,3.35523236 L10.0400556,3.35523236 L10.0400556,8.68994905 L10.5303072,8.68994905 L10.5303072,3.35582523 L11.0664567,3.35582523 L11.0664567,8.69113478 L11.5543863,8.69113478 L11.5543863,3.35582523 L12.1106438,3.35582523 L12.1106438,8.69113478 L12.6002532,8.69113478 L12.6002532,3.35582523 L12.9790953,3.35582523 C12.9790953,3.35582523 13.7379651,9.04072873 13.3086305,9.6830508 C12.965904,10.1950903 12.4188359,10.6060954 11.7794287,10.7518913 C11.7679667,10.7559426 11.7575915,10.759895 11.7575915,10.759895 L11.9711224,14.848751 C14.3338459,13.475078 15.9261881,10.9229829 15.9261881,7.99313262 C15.9250023,3.61214142 12.3740744,0.0611641192 7.99367608,0.0611641192 Z" id="Shape" fill-rule="nonzero"></path>
                        <path d="M3.70971746,5.94867994 C3.73812568,5.83302146 3.7763162,5.72309403 3.77804539,5.7211178 C3.79039679,5.6777891 3.76742319,5.6335711 3.72033966,5.60545932 C3.6755782,5.58134939 3.62103443,5.59370079 3.59578817,5.63243477 C3.59578817,5.63243477 3.54154084,5.71884514 3.46288714,5.84655859 C3.3989069,5.95648603 3.30419639,6.1321229 3.23957388,6.35084144 C3.18359734,6.54253512 3.11675158,6.79741856 3.08661417,7.08268643 C3.07427827,7.22372703 3.07053299,7.36538742 3.0753991,7.50688282 C3.08661417,7.66557357 3.1106747,7.80134013 3.15662189,7.95662189 C3.31244712,8.39949359 3.4324533,8.82833411 3.86554269,9.25134476 C4.00244558,9.39200247 4.14310329,9.48784931 4.24468118,9.5584499 L4.28054964,9.58369616 C4.30238691,9.59807318 4.32333488,9.61131388 4.34398641,9.62336884 C4.42926046,9.66813031 4.48632392,9.68418712 4.49669909,9.68645978 C4.53913849,9.69792188 4.58281303,9.67727034 4.60084607,9.64283465 C4.61779219,9.60666975 4.60544079,9.56131542 4.5701652,9.53266018 C4.5701652,9.53266018 4.52075961,9.48962791 4.45737224,9.40924502 C4.41404354,9.3604323 4.36696001,9.28983171 4.31216921,9.21009109 C4.27343523,9.15381813 4.22778447,9.09008492 4.18529566,9.0280809 C3.9743338,8.70605527 3.85269724,8.25661263 3.68447121,7.79620195 C3.65146827,7.69630384 3.62449282,7.5668612 3.61441408,7.45693377 C3.60149307,7.33653282 3.59489659,7.21553699 3.59465184,7.09444496 C3.58976069,6.83096495 3.60151922,6.60478617 3.62449282,6.42139262 C3.65087541,6.21448201 3.67152694,6.05920025 3.70971746,5.94867994 Z" id="Shape" fill-rule="nonzero"></path>
                    </g>
                </g>
            </g>
        </g>
    </g>
</svg>